<svg width="25" height="25" viewBox="0 0 25 25" fill="none" xmlns="http://www.w3.org/2000/svg">
<path d="M8.97998 22.5C9.53227 22.5 9.97998 22.0523 9.97998 21.5C9.97998 20.9477 9.53227 20.5 8.97998 20.5C8.4277 20.5 7.97998 20.9477 7.97998 21.5C7.97998 22.0523 8.4277 22.5 8.97998 22.5Z" stroke="#4B5563" stroke-width="2" stroke-linecap="round" stroke-linejoin="round"/>
<path d="M19.98 22.5C20.5323 22.5 20.98 22.0523 20.98 21.5C20.98 20.9477 20.5323 20.5 19.98 20.5C19.4277 20.5 18.98 20.9477 18.98 21.5C18.98 22.0523 19.4277 22.5 19.98 22.5Z" stroke="#4B5563" stroke-width="2" stroke-linecap="round" stroke-linejoin="round"/>
<path d="M3.02997 2.55H5.02997L7.68997 14.97C7.78755 15.4249 8.04064 15.8315 8.40568 16.1199C8.77072 16.4082 9.22487 16.5604 9.68997 16.55H19.47C19.9251 16.5493 20.3665 16.3933 20.721 16.1078C21.0755 15.8224 21.3221 15.4245 21.42 14.98L23.07 7.55H6.09997" stroke="#4B5563" stroke-width="2" stroke-linecap="round" stroke-linejoin="round"/>
</svg>
