<svg xmlns="http://www.w3.org/2000/svg"  viewBox="0 0 48 48" width="48px" height="48px" baseProfile="basic"><path fill="#ff9800" d="M22,37l-5-6v-6h10v6L22,37z"/><path fill="#ffa726" d="M31,17c-1.105,0-2,0.895-2,2s0.895,2,2,2c1.105,0,2-0.895,2-2S32.105,17,31,17z M13,17	c-1.105,0-2,0.895-2,2s0.895,2,2,2s2-0.895,2-2S14.105,17,13,17z"/><path fill="#ffb74d" d="M31,13c0-7.6-18-5-18,0c0,1.1,0,5.9,0,7c0,5,4,9,9,9s9-4,9-9C31,18.9,31,14.1,31,13z"/><path fill="#ff5722" d="M22,4c-6.1,0-10,4.9-10,11c0,0.8,0,2.3,0,2.3l2,1.7v-5l12-4l4,4v5l2-1.7c0,0,0-1.5,0-2.3c0-4-1-8-6-9	l-1-2L22,4z"/><path fill="#784719" d="M26,18c-0.552,0-1,0.448-1,1s0.448,1,1,1s1-0.448,1-1S26.552,18,26,18z M18,18c-0.552,0-1,0.448-1,1	s0.448,1,1,1s1-0.448,1-1S18.552,18,18,18z"/><path fill="#cfd8dc" d="M27,31L27,31l-5,1l-5-1c0,0-11,2-11,13h32C38,33,27,31,27,31z"/><path fill="#3f51b5" d="M21,35l-1,9h4l-1-9l1-1l-2-2l-2,2L21,35z"/><polygon fill="#ff8f00" points="32.687,38.185 30.011,44.714 33.222,44.286 35.791,46.962 36.861,39.149"/><polygon fill="#ff8f00" points="40.821,38.4 43.497,44.928 40.286,44.5 37.717,47.176 36.647,39.363"/><circle cx="37.022" cy="36.098" r="6.689" fill="#f34336"/><polygon fill="#ffd600" points="37.075,30.014 38.44,34.213 42.855,34.213 39.283,36.809 40.647,41.008 37.075,38.413 33.503,41.008 34.868,36.809 31.296,34.213 35.711,34.213"/></svg>