<svg width="41" height="41" viewBox="0 0 41 41" fill="none" xmlns="http://www.w3.org/2000/svg">
<path d="M23.98 29.5V21.5C23.98 21.2348 23.8746 20.9804 23.6871 20.7929C23.4996 20.6054 23.2452 20.5 22.98 20.5H18.98C18.7148 20.5 18.4604 20.6054 18.2729 20.7929C18.0853 20.9804 17.98 21.2348 17.98 21.5V29.5" stroke="#4B5563" stroke-width="2" stroke-linecap="round" stroke-linejoin="round"/>
<path d="M11.98 18.5C11.9799 18.2091 12.0433 17.9216 12.1658 17.6577C12.2882 17.3938 12.4668 17.1598 12.689 16.972L19.689 10.973C20.05 10.6679 20.5073 10.5005 20.98 10.5005C21.4526 10.5005 21.91 10.6679 22.271 10.973L29.271 16.972C29.4932 17.1598 29.6717 17.3938 29.7942 17.6577C29.9166 17.9216 29.9801 18.2091 29.98 18.5V27.5C29.98 28.0304 29.7693 28.5391 29.3942 28.9142C29.0191 29.2893 28.5104 29.5 27.98 29.5H13.98C13.4495 29.5 12.9408 29.2893 12.5658 28.9142C12.1907 28.5391 11.98 28.0304 11.98 27.5V18.5Z" stroke="#4B5563" stroke-width="2" stroke-linecap="round" stroke-linejoin="round"/>
</svg>
