<svg width="25" height="25" viewBox="0 0 25 25" fill="none" xmlns="http://www.w3.org/2000/svg">
<path d="M6.97998 8.5C6.97998 6.9087 7.61212 5.38258 8.73734 4.25736C9.86256 3.13214 11.3887 2.5 12.98 2.5C14.5713 2.5 16.0974 3.13214 17.2226 4.25736C18.3478 5.38258 18.98 6.9087 18.98 8.5C18.98 15.5 21.98 17.5 21.98 17.5H3.97998C3.97998 17.5 6.97998 15.5 6.97998 8.5Z" stroke="#4B5563" stroke-width="2" stroke-linecap="round" stroke-linejoin="round"/>
<path d="M11.28 21.5C11.4474 21.8044 11.6934 22.0583 11.9925 22.2352C12.2915 22.412 12.6325 22.5053 12.98 22.5053C13.3274 22.5053 13.6684 22.412 13.9675 22.2352C14.2665 22.0583 14.5126 21.8044 14.68 21.5" stroke="#4B5563" stroke-width="2" stroke-linecap="round" stroke-linejoin="round"/>
</svg>
