<svg width="25" height="25" viewBox="0 0 25 25" fill="none" xmlns="http://www.w3.org/2000/svg">
<path d="M6.29999 2.84003L3.29999 6.84003V20.84C3.29999 21.3705 3.5107 21.8792 3.88577 22.2542C4.26085 22.6293 4.76955 22.84 5.29999 22.84H19.3C19.8304 22.84 20.3391 22.6293 20.7142 22.2542C21.0893 21.8792 21.3 21.3705 21.3 20.84V6.84003L18.3 2.84003H6.29999Z" stroke="white" stroke-width="2" stroke-linecap="round" stroke-linejoin="round"/>
<path d="M3.29999 6.84003H21.3" stroke="white" stroke-width="2" stroke-linecap="round" stroke-linejoin="round"/>
<path d="M16.3 10.84C16.3 11.9009 15.8786 12.9183 15.1284 13.6685C14.3783 14.4186 13.3609 14.84 12.3 14.84C11.2391 14.84 10.2217 14.4186 9.47156 13.6685C8.72141 12.9183 8.29999 11.9009 8.29999 10.84" stroke="white" stroke-width="2" stroke-linecap="round" stroke-linejoin="round"/>
</svg>
