<?xml version="1.0" encoding="iso-8859-1"?>
<!-- Uploaded to: SVG Repo, www.svgrepo.com, Generator: SVG Repo Mixer Tools -->
<svg height="800px" width="800px" version="1.1" id="Layer_1" xmlns="http://www.w3.org/2000/svg" xmlns:xlink="http://www.w3.org/1999/xlink" 
	 viewBox="0 0 512.001 512.001" xml:space="preserve">
<path style="fill:#80D0E1;" d="M389.916,389.917c-33.529,33.529-87.977,33.635-121.613,0L18.312,139.929L139.925,18.316
	l249.989,249.989C423.497,301.886,423.497,356.334,389.916,389.917z"/>
<path style="fill:#FFDA79;" d="M353.092,353.092c-13.224,13.224-34.741,13.226-47.965,0l-69.875-69.875l47.965-47.965l69.875,69.875
	C366.314,318.352,366.314,339.868,353.092,353.092z"/>
<g>
	<path style="fill:#58595B;" d="M292.751,225.718c-5.269-5.267-13.807-5.267-19.074,0l-47.964,47.964
		c-5.267,5.267-5.267,13.807,0,19.072l69.875,69.875c18.48,18.482,48.555,18.482,67.039-0.002
		c18.505-18.507,18.502-48.53-0.002-67.035L292.751,225.718z M343.554,343.556c-7.966,7.966-20.931,7.964-28.892,0.002
		l-60.339-60.339l28.892-28.892l60.341,60.341C351.515,322.628,351.52,335.592,343.554,343.556z"/>
	<path style="fill:#58595B;" d="M258.048,185.948c-5.267-5.267-13.807-5.267-19.072,0l-53.027,53.027
		c-5.267,5.267-5.267,13.807,0,19.072c5.267,5.267,13.807,5.267,19.072,0l53.027-53.027
		C263.313,199.755,263.313,191.215,258.048,185.948z"/>
	<path style="fill:#58595B;" d="M222.695,150.599c-5.267-5.267-13.807-5.267-19.072,0l-53.027,53.026
		c-5.267,5.267-5.267,13.807,0,19.072c5.265,5.267,13.805,5.267,19.072,0l53.027-53.026
		C227.962,164.404,227.962,155.864,222.695,150.599z"/>
	<path style="fill:#58595B;" d="M187.551,115.453c-5.267-5.267-13.807-5.267-19.072,0l-53.027,53.027
		c-5.267,5.267-5.267,13.807,0,19.072c5.267,5.267,13.807,5.267,19.072,0l53.027-53.027
		C192.818,129.258,192.818,120.719,187.551,115.453z"/>
	<path style="fill:#58595B;" d="M508.051,488.979l-99.727-99.727c29.618-38.962,26.678-94.935-8.872-130.485L149.463,8.778
		c-5.265-5.267-13.805-5.267-19.072,0l-51.27,51.27L59.072,40.002l16.977-16.977c5.267-5.267,5.267-13.807,0-19.074
		s-13.807-5.267-19.074,0C48.422,12.506,67.096-6.167,3.95,56.979c-5.267,5.267-5.267,13.807,0,19.072
		c5.267,5.267,13.807,5.267,19.072,0l16.977-16.977l20.048,20.048l-51.27,51.271c-5.263,5.262-5.267,13.808,0,19.072
		l249.989,249.987c35.727,35.729,91.604,38.537,130.496,8.883l99.714,99.714c5.269,5.267,13.807,5.267,19.074,0
		C513.318,502.785,513.318,494.246,508.051,488.979z M277.839,380.38L37.386,139.929L139.927,37.388l240.451,240.451
		c28.271,28.271,28.271,74.27,0,102.541C352.042,408.718,306.177,408.719,277.839,380.38z"/>
</g>
</svg>