<svg width="40" height="41" viewBox="0 0 40 41" fill="none" xmlns="http://www.w3.org/2000/svg">
<rect width="40" height="40" transform="translate(0 0.5)" fill="url(#paint0_linear_1_190)"/>
<path d="M9.99777 27.5V14.4091H15.1625C16.1512 14.4091 16.9949 14.5859 17.6938 14.9396C18.3969 15.2891 18.9317 15.7855 19.2982 16.429C19.6689 17.0682 19.8543 17.8203 19.8543 18.6854C19.8543 19.5547 19.6668 20.3026 19.2918 20.929C18.9168 21.5511 18.3735 22.0284 17.6618 22.3608C16.9544 22.6932 16.0979 22.8594 15.0922 22.8594H11.6341V20.6349H14.6448C15.1732 20.6349 15.6121 20.5625 15.9615 20.4176C16.311 20.2727 16.5709 20.0554 16.7414 19.7656C16.9161 19.4759 17.0035 19.1158 17.0035 18.6854C17.0035 18.2507 16.9161 17.8842 16.7414 17.5859C16.5709 17.2876 16.3088 17.0618 15.9552 16.9084C15.6057 16.7507 15.1647 16.6719 14.632 16.6719H12.7655V27.5H9.99777ZM17.0674 21.5426L20.3209 27.5H17.2655L14.0823 21.5426H17.0674ZM24.0347 17.6818L25.8373 21.1143L27.6846 17.6818H30.4779L27.6334 22.5909L30.5546 27.5H27.774L25.8373 24.1058L23.9324 27.5H21.1199L24.0347 22.5909L21.2222 17.6818H24.0347Z" fill="white"/>
<defs>
<linearGradient id="paint0_linear_1_190" x1="0" y1="0" x2="40" y2="40" gradientUnits="userSpaceOnUse">
<stop stop-color="#3B82F6"/>
<stop offset="1" stop-color="#10B981"/>
</linearGradient>
</defs>
</svg>
